<?xml version="1.0" encoding="utf-8"?><svg width="142" height="125" viewBox="0 0 142 125" xmlns="http://www.w3.org/2000/svg" xmlns:xlink="http://www.w3.org/1999/xlink"><svg viewBox="0 0 77.7 125" width="77.7" height="125" id="ipod-classic" xmlns="http://www.w3.org/2000/svg"><path fill="#bbb5af" stroke="#888" stroke-linecap="round" stroke-linejoin="round" stroke-width=".044" d="M81.6 923.4H26.2c-3.4 0-6.1 2.7-6.1 6.1v102.7c0 3.4 2.7 6.1 6.1 6.1h55.4c3.4 0 6.1-2.7 6.1-6.1V929.5c.1-3.4-2.7-6.1-6.1-6.1zm.5 48c0 .4-.3.8-.8.8H26.8c-.4 0-.8-.4-.8-.8v-41.6c0-.4.4-.8.8-.8h54.5c.4 0 .8.4.8.8v41.6z" transform="matrix(.99847 0 0 .9993 -14.984 -917.674)"/><path fill="#dcdcdc" stroke="#888" stroke-linecap="round" stroke-linejoin="round" stroke-width=".25" d="M74.9 1004.5c0 11.8-9.4 21.3-21 21.3s-21-9.5-21-21.3h0c0-11.8 9.4-21.3 21-21.3s21 9.5 21 21.3z" transform="matrix(.99847 0 0 .9993 -14.984 -917.674)"/><path d="M53.692 87.122l-.051-1.884 1.609.908-1.558.976zM55.318 87.122l-.051-1.884 1.609.908-1.558.976zM56.927 85.238h.497v1.884h-.497zM24.152 84.994l.042 1.884-1.617-.906 1.575-.978zM22.534 84.994l.043 1.884-1.617-.906 1.574-.978zM20.917 86.878h-.494v-1.884h.494zM36.537 104.61v-1.899l1.597.9-1.597.999zM39.632 102.711h.5v1.899h-.5zM40.73 102.711h.5v1.899h-.5zM35.339 69.035v-1.8h.399l.5 1.3c0 .1.1.2.1.3 0-.1.099-.2.099-.3l.5-1.2h.299v1.8h-.3v-1.5l-.599 1.5h-.2l-.599-1.5v1.5h-.2zm2.296 0v-1.8h1.398v.2h-1.098v.5h.998v.2h-1.098v.6h1.198v.2h-1.398zm1.797 0v-1.8h.3l.998 1.4v-1.4h.2v1.8h-.3l-.998-1.4v1.4h-.2zm3.195-1.7h.3v1c0 .2 0 .3-.1.4 0 .1-.1.2-.2.3-.1.1-.3.1-.499.1s-.3 0-.4-.1-.199-.1-.199-.2-.1-.3-.1-.4v-1h.3v1.3l.2.2c.1.1.2.1.3.1.199 0 .299 0 .398-.1.1-.1.1-.2.1-.5v-1.1z" class="ast2"/><path fill="#bbb5af" d="M46.621 86.023a7.481 7.481 0 01-7.488 7.494c-4.194 0-7.489-3.397-7.489-7.494 0-4.197 3.395-7.495 7.489-7.495s7.488 3.298 7.488 7.495z"/><path fill="#202020" d="M66.291 10.176H11.775c-.7 0-1.298.6-1.298 1.299v41.57c0 .7.599 1.3 1.298 1.3H66.19c.7 0 1.298-.6 1.298-1.3v-41.57c0-.7-.499-1.3-1.198-1.3zm.7 42.87c0 .4-.3.8-.8.8H11.775c-.4 0-.799-.4-.799-.8V11.475c0-.4.4-.8.799-.8H66.19c.4 0 .8.4.8.8v41.57z"/></svg><svg viewBox="0 0 64 64" width="64" height="64" id="site-logo" x="77.7" xmlns="http://www.w3.org/2000/svg"><defs><linearGradient id="ba" x1="434.82" x2="3618.8" y1="3381.83" y2="748.76" gradientUnits="userSpaceOnUse"><stop offset="0" stop-color="#e74a25"/><stop offset=".34" stop-color="#d53e33"/><stop offset="1" stop-color="#a61e58"/></linearGradient><linearGradient xlink:href="#ba" id="bb" x1="513.93" x2="3657.93" y1="3387.43" y2="787.43"/><linearGradient xlink:href="#ba" id="bc" x1="504.07" x2="3648.07" y1="3374.18" y2="774.18"/></defs><path fill="#393837" d="M4008.66 2048.67c0 1082.47-877.48 1960-1959.94 1960s-1960-877.52-1960-1960S966.25 88.73 2048.72 88.73s1959.94 877.48 1959.94 1959.94z"/><path fill="url(#ba)" d="M2047.33-.36C915.86-.36-1.39 916.89-1.39 2048.31S915.86 4097 2047.33 4097 4096 3179.78 4096 2048.31 3178.8-.36 2047.33-.36zm0 4008.66c-1082.47 0-1960-877.52-1960-1960S964.86 88.37 2047.33 88.37s1959.94 877.48 1959.94 1959.94S3129.79 4008.3 2047.33 4008.3z" transform="translate(1.39 .36)"/><path fill="url(#bb)" d="M2695.41 1081.92l-10.19-.86h-1310a13.59 13.59 0 00-12.56 8.37L568.81 2980a13.62 13.62 0 0012.56 18.93h2103.46l10.81-1c1118.92-208.31 1091.81-1728.12-.23-1916.01zm-117.15 1541.59H1215a44.22 44.22 0 01-40.62-61.7l467-1085.43a44.24 44.24 0 0140.63-26.75h921.29a45.14 45.14 0 0110.1 1.14c751.13 173.27 655.77 1088.52-29.49 1172.4a46 46 0 01-5.65.34z" transform="translate(1.39 .36)"/><path fill="url(#bc)" d="M2364.73 2439.27h-327.16l-307.15-476.28 118.63-304.87 515.68 781.15z"/></svg></svg>