<svg xmlns="http://www.w3.org/2000/svg" xml:space="preserve" id="svg3604" x="0" y="0" version="1.1" viewBox="0 0 77.7 125"><g id="layer1"><g id="g4308" transform="matrix(.99847 0 0 .9993 -14.984266 -917.67427)"><path fill="#bbb5af" stroke="#888" stroke-linecap="round" stroke-linejoin="round" stroke-width=".04429979" d="M81.6 923.4H26.2c-3.4 0-6.1 2.7-6.1 6.1v102.7c0 3.4 2.7 6.1 6.1 6.1h55.4c3.4 0 6.1-2.7 6.1-6.1V929.5c.1-3.4-2.7-6.1-6.1-6.1zm.5 48c0 .4-.3.8-.8.8H26.8c-.4 0-.8-.4-.8-.8v-41.6c0-.4.4-.8.8-.8h54.5c.4 0 .8.4.8.8v41.6z"/><path id="path4138" fill="#dcdcdc" stroke="#888" stroke-linecap="round" stroke-linejoin="round" stroke-width=".25" d="M74.9 1004.5c0 11.8-9.4 21.3-21 21.3s-21-9.5-21-21.3h0c0-11.8 9.4-21.3 21-21.3s21 9.5 21 21.3z"/><g id="g4230" transform="matrix(.17145 0 0 .17139 16.626271 860.40146)"><path id="path4179" d="m304.2 846.6-.3-11 9.4 5.3-9.1 5.7z" class="st2"/><path id="path4181" d="m313.7 846.6-.3-11 9.4 5.3-9.1 5.7z" class="st2"/><path id="rect4183" d="M323.1 835.6h2.9v11h-2.9z" class="st2"/></g><g id="g4190" transform="matrix(-.08525 0 0 -.08022 84.250442 1070.2497)"><path id="path4192" d="m528.5 833.7-.5-23.5 19 11.3-18.5 12.2z" class="st2"/><path id="path4194" d="m547.5 833.7-.5-23.5 19 11.3-18.5 12.2z" class="st2"/><path id="rect4196" d="M566.5 810.2h5.8v23.5h-5.8z" class="st2"/></g><path id="path4200" d="M51.6 1023v-1.9l1.6.9-1.6 1z" class="st2"/><path id="rect4204" d="M54.7 1021.1h.5v1.9h-.5z" class="st2"/><path id="rect4209" d="M55.8 1021.1h.5v1.9h-.5z" class="st2"/><path id="flowRoot4219" d="M50.4 987.4v-1.8h.4l.5 1.3c0 .1.1.2.1.3 0-.1.1-.2.1-.3l.5-1.2h.3v1.8H52V986l-.6 1.5h-.2l-.6-1.5v1.5h-.2zm2.3 0v-1.8h1.4v.2H53v.5h1v.2h-1.1v.6h1.2v.2h-1.4zm1.8 0v-1.8h.3l1 1.4v-1.4h.2v1.8h-.3l-1-1.4v1.4h-.2zm3.2-1.7h.3v1c0 .2 0 .3-.1.4 0 .1-.1.2-.2.3-.1.1-.3.1-.5.1s-.3 0-.4-.1-.2-.1-.2-.2-.1-.3-.1-.4v-1h.3v1.3l.2.2c.1.1.2.1.3.1.2 0 .3 0 .4-.1.1-.1.1-.2.1-.5v-1.1z" class="st2"/><path id="path4236" fill="#bbb5af" d="M61.7 1004.4c0 4.2-3.4 7.5-7.5 7.5-4.2 0-7.5-3.4-7.5-7.5 0-4.2 3.4-7.5 7.5-7.5s7.5 3.3 7.5 7.5z"/><path fill="#202020" d="M81.4 928.5H26.8c-.7 0-1.3.6-1.3 1.3v41.6c0 .7.6 1.3 1.3 1.3h54.5c.7 0 1.3-.6 1.3-1.3v-41.6c0-.7-.5-1.3-1.2-1.3zm.7 42.9c0 .4-.3.8-.8.8H26.8c-.4 0-.8-.4-.8-.8v-41.6c0-.4.4-.8.8-.8h54.5c.4 0 .8.4.8.8v41.6z"/></g></g></svg>