<svg xmlns="http://www.w3.org/2000/svg" xmlns:xlink="http://www.w3.org/1999/xlink" viewBox="0 0 64 64"><defs><linearGradient id="a" x1="434.82" x2="3618.8" y1="3381.83" y2="748.76" gradientUnits="userSpaceOnUse"><stop offset="0" stop-color="#e74a25"/><stop offset=".34" stop-color="#d53e33"/><stop offset="1" stop-color="#a61e58"/></linearGradient><linearGradient xlink:href="#a" id="b" x1="513.93" x2="3657.93" y1="3387.43" y2="787.43"/><linearGradient xlink:href="#a" id="c" x1="504.07" x2="3648.07" y1="3374.18" y2="774.18"/></defs><path fill="#393837" d="M4008.66 2048.67c0 1082.47-877.48 1960-1959.94 1960s-1960-877.52-1960-1960S966.25 88.73 2048.72 88.73s1959.94 877.48 1959.94 1959.94Z"/><path fill="url(#a)" d="M2047.33-.36C915.86-.36-1.39 916.89-1.39 2048.31S915.86 4097 2047.33 4097 4096 3179.78 4096 2048.31 3178.8-.36 2047.33-.36Zm0 4008.66c-1082.47 0-1960-877.52-1960-1960S964.86 88.37 2047.33 88.37s1959.94 877.48 1959.94 1959.94S3129.79 4008.3 2047.33 4008.3Z" transform="translate(1.39 .36)"/><path fill="url(#b)" d="m2695.41 1081.92-10.19-.86h-1310a13.59 13.59 0 0 0-12.56 8.37L568.81 2980a13.62 13.62 0 0 0 12.56 18.93h2103.46l10.81-1c1118.92-208.31 1091.81-1728.12-.23-1916.01Zm-117.15 1541.59H1215a44.22 44.22 0 0 1-40.62-61.7l467-1085.43a44.24 44.24 0 0 1 40.63-26.75h921.29a45.14 45.14 0 0 1 10.1 1.14c751.13 173.27 655.77 1088.52-29.49 1172.4a46 46 0 0 1-5.65.34Z" transform="translate(1.39 .36)"/><path fill="url(#c)" d="M2364.73 2439.27h-327.16l-307.15-476.28 118.63-304.87 515.68 781.15z"/></svg>